<!-- icon666.com - MILLIONS vector ICONS FREE --><svg version="1.1" id="Layer_1" xmlns="http://www.w3.org/2000/svg" xmlns:xlink="http://www.w3.org/1999/xlink" x="0px" y="0px" viewBox="0 0 480.01 480.01" style="enable-background:new 0 0 480.01 480.01;" xml:space="preserve"><g><circle style="fill:#2364CE;" cx="240.001" cy="240" r="240"/><circle style="fill:#2364CE;" cx="240.001" cy="240" r="240"/></g><path style="fill:#074AAA;" d="M409.713,70.304c93.736,93.728,93.72,245.672,0,339.4c-93.736,93.736-245.688,93.744-339.416,0.008" /><path style="fill:#3981EA;" d="M18.673,258.664c0-132.544,107.456-239.992,240-239.992c61.504,0,117.6,23.168,160.072,61.208 C374.809,30.864,311.017,0.008,240.001,0.008c-132.544,0-240,107.448-240,239.992c0,71.04,30.88,134.848,79.928,178.792 C41.857,376.312,18.673,320.208,18.673,258.664z"/><path style="fill:#C8D8E8;" d="M174.425,113.84c-20.76,0-42.504,0.424-55.944,1.056c-1.68,0-6.48,1.056-6.48,2.528v223.088 c0,1.896,1.056,3.496,2.736,3.496h34.352c1.888,0,2.912-2.304,2.912-3.992v-76.992c8,0,8.816,0.432,16.784,0.432 c47.376,0,86.152-23.008,86.152-76.6C254.929,145.904,232.497,113.84,174.425,113.84z M169.505,229.896c-8.4,0-9.504,0-17.504-0.424 v-81.44c8-0.216,12.272-0.648,20.648-0.648c27.88,0,44.448,13.504,44.448,40.32C217.097,221.248,194.033,229.896,169.505,229.896z" /><g><path style="fill:#FFFFFF;" d="M337.105,244.248c-22.232-11.608-25.984-16.88-25.984-24.488c0-6.952,5.64-15.4,22.208-15.4 c13.616,0,28.768,3.576,38,9.496c2.096,0.648,4.672-0.416,4.672-2.096v-28.912c0-1.48-1.952-3.168-3.64-4.216 c-6.904-3.168-20.232-5.904-38.264-5.904c-36.688,0-58.24,22.576-58.24,49.8c0,24.272,12.176,38.832,41.944,53.168 c21.168,10.968,25.888,17.736,25.888,25.32c0,9.504-6.952,16.472-23.512,16.472c-13.84,0-30.696-3.808-43.896-12.456 c-1.472-1.064-4.28-0.432-4.28,1.672v31.032c0,1.688,1.928,2.736,3.4,3.368c9.024,5.288,25.616,9.08,43.856,9.08 c34.568,0,60.584-18.152,60.584-51.904C379.841,275.688,370.017,260.288,337.105,244.248z"/><path style="fill:#FFFFFF;" d="M337.105,244.248c-22.232-11.608-25.984-16.88-25.984-24.488c0-6.952,5.64-15.4,22.208-15.4 c13.616,0,28.768,3.576,38,9.496c2.096,0.648,4.672-0.416,4.672-2.096v-28.912c0-1.48-1.952-3.168-3.64-4.216 c-6.904-3.168-20.232-5.904-38.264-5.904c-36.688,0-58.24,22.576-58.24,49.8c0,24.272,12.176,38.832,41.944,53.168 c21.168,10.968,25.888,17.736,25.888,25.32c0,9.504-6.952,16.472-23.512,16.472c-13.84,0-30.696-3.808-43.896-12.456 c-1.472-1.064-4.28-0.432-4.28,1.672v31.032c0,1.688,1.928,2.736,3.4,3.368c9.024,5.288,25.616,9.08,43.856,9.08 c34.568,0,60.584-18.152,60.584-51.904C379.841,275.688,370.017,260.288,337.105,244.248z"/><path style="fill:#FFFFFF;" d="M118.481,125.552c13.44-0.632,34.256-1.056,55.016-1.056c55.184,0,78.792,28.984,80.96,67 c0.08-1.552,0.448-3.04,0.448-4.648c0-40.944-22.52-73.016-80.592-73.016c-20.76,0-42.448,0.424-55.88,1.056 c-1.688,0-6.424,1.056-6.424,2.528v10.664C112.001,126.6,116.801,125.552,118.481,125.552z"/><path style="fill:#FFFFFF;" d="M169.505,240.56c24.52,0,47.84-8.648,47.84-42.192c0-1.48-0.12-2.752-0.208-4.16 c-2.84,28.16-24.848,35.688-47.696,35.688c-8.4,0-9.448,0-17.448-0.424v10.664C160.001,240.56,161.113,240.56,169.505,240.56z"/></g><g><path style="fill:#C8D8E8;" d="M337.105,244.248c-16.456-8.584-22.768-13.712-24.936-18.872c-1.56-4.776-1.224-4.576-1.224-2.936 c0,7.6,3.928,20.864,26.168,32.48c30.168,14.704,40.784,29.952,42.432,49.608c0.144-1.704,0.312-4.472,0.312-6.248 C379.841,275.688,370.017,260.288,337.105,244.248z"/><path style="fill:#C8D8E8;" d="M276.249,315.688c13.2,8.648,29.168,12.456,43.008,12.456c16.56,0,23.896-6.968,23.896-16.472 c0-1.768,0.096-2.944-0.568-4.672c-2.96,6.264-9.392,10.48-22.568,10.48c-13.84,0-30.616-3.808-43.824-12.456 c-1.464-1.056-4.192-0.424-4.192,1.68v10.664C272.001,315.256,274.785,314.632,276.249,315.688z"/><path style="fill:#C8D8E8;" d="M333.329,183.384c18.032,0,32.128,2.736,39.032,5.904c1.688,1.048,3.64,2.744,3.64,4.224v-10.664 c0-1.48-1.952-3.168-3.64-4.216c-6.904-3.168-20.232-5.904-38.264-5.904c-36.688,0-58.24,22.576-58.24,49.8 c0,1.76,0.024,3.344,0.152,4.992C278.753,202.896,299.225,183.384,333.329,183.384z"/></g></svg>

<!-- icon666.com - MILLIONS vector ICONS FREE --><svg version="1.1" id="Capa_1" xmlns="http://www.w3.org/2000/svg" xmlns:xlink="http://www.w3.org/1999/xlink" x="0px" y="0px" viewBox="0 0 512 512" style="enable-background:new 0 0 512 512;" xml:space="preserve"><path style="fill:#F2F2F2;" d="M512,256c0,7.91-0.355,15.726-1.066,23.448c-0.543,6.113-1.317,12.152-2.299,18.119 C488.782,419.182,383.227,512,256,512c-64.805,0-123.977-24.074-169.075-63.781c-16.666-14.66-31.41-31.462-43.802-49.977 C15.882,357.564,0,308.632,0,256C0,114.615,114.615,0,256,0S512,114.615,512,256z"/><path style="fill:#CD6699;" d="M446.767,284.975c-7.764,2.936-7.45,2.988-11.557-4.493c-5.245-9.529-8.035-19.55-8.276-30.448 c-0.199-9.352,2.361-18.045,5.58-26.572c2.57-6.781-0.773-9.174-6.646-9.791c-4.274-0.439-8.683-0.397-12.967,0.042 c-11.139,1.139-12.236,2.1-15.193,12.915c-1.755,6.416-3.156,12.884-6.071,18.975c-7.189,14.994-15.36,29.435-23.74,43.771 c-1.505,2.581-2.748,5.36-4.869,7.565c-6.071-9.091-8.359-19.132-8.871-29.665c-0.512-10.397,2.675-20.062,6.175-29.623 c1.181-3.218,0.199-5.214-2.581-6.604c-1.233-0.616-2.612-1.191-3.96-1.296c-7.147-0.564-14.273-0.481-21.243,1.473 c-3.135,0.867-5.183,2.623-5.883,6.144c-1.358,6.886-3.479,13.573-6.343,20.01c-7.941,17.826-15.83,35.683-23.761,53.52 c-6.896,15.496-13.688,31.033-21.859,45.913c-0.575,1.055-1.055,2.884-2.497,2.518c-1.463-0.366-0.951-2.163-1.014-3.396 c-0.47-8.777,1.923-17.147,3.96-25.527c3.229-13.26,6.76-26.457,10.188-39.675c0.982-3.793-0.669-6.343-3.814-8.161 c-4.524-2.602-9.028-2.727-13.928,0.919c0.669-5.392,0.961-10.125,0.731-14.858c-0.522-10.553-5.413-17.418-13.928-19.007 c-6.217-1.16-12.1,0.648-17.659,3.281c-12.957,6.134-23.374,15.381-32.131,26.603c-1.024,1.306-2.058,2.508-3.542,3.312 c-16.436,8.955-32.862,17.91-49.256,26.948c-1.797,1.003-2.957,0.721-4.253-0.669c-8.255-8.85-17.836-16.154-27.324-23.562 c-13.26-10.365-26.979-20.187-38.421-32.684c-6.687-7.314-12.267-15.329-15.057-25.004c-4.556-15.82-1.149-30.553,6.437-44.554 c8.976-16.562,22.288-29.351,36.968-40.741c23.312-18.077,48.88-32.434,75.828-44.251c30.177-13.218,61.482-21.734,94.824-20.449 c13.208,0.512,26.028,2.8,37.794,9.268c8.328,4.577,13.845,11.191,15.402,20.898c1.829,11.368-0.899,21.87-5.945,31.828 c-11.274,22.246-29.194,38.003-50.375,50.343c-17.638,10.271-36.665,16.792-56.801,20.208c-11.128,1.891-22.298,3.03-33.489,1.327 c-12.842-1.954-24.712-6.248-33.499-16.593c-1.014-1.191-2.299-2.017-4.023-1.181c-1.766,0.857-1.63,2.424-1.463,3.929 c0.125,1.034,0.408,2.079,0.773,3.062c2.351,6.343,6.75,11.128,11.901,15.308c13.396,10.898,29.268,14.096,45.934,14.42 c16.311,0.324,32.371-1.745,48.264-5.548c35.85-8.568,65.881-26.154,87.803-56.289c13.103-18.014,21.4-37.867,20.668-60.583 c-0.47-14.409-5.319-27.136-15.82-37.48c-12.487-12.278-27.982-18.453-44.607-22.162c-18.516-4.117-37.219-4.702-56.111-2.445 c-16.436,1.964-32.496,5.329-48.128,10.71c-23.918,8.244-47.02,18.369-69.13,30.678c-22.653,12.601-44.001,27.032-62.725,45.108 c-16.572,15.997-30.814,33.646-38.839,55.557c-3.427,9.383-5.893,19.028-3.594,29.174c2.947,13.061,9.383,24.367,17.847,34.565 c12.8,15.444,28.505,27.606,44.701,39.225c13.009,9.341,26.624,17.847,39.121,27.888c3.542,2.842,3.521,2.842-0.648,5.026 c-4.869,2.539-9.791,4.984-14.576,7.69C91.951,342.695,73.3,354.523,58.075,370.96c-7.492,8.098-12.581,17.189-14.952,27.282 c12.392,18.516,27.136,35.318,43.802,49.977c28.432-2.215,50.197-17.011,66.278-41.482c7.764-11.818,11.4-25.192,12.769-39.299 c1.202-12.434-0.063-24.472-3.72-36.342c-0.637-2.09-3.009-4.169-2.079-6.008c0.867-1.693,3.48-2.55,5.402-3.657 c7.753-4.504,15.527-8.944,23.51-13.531c0.345,1.714-0.324,2.717-0.616,3.803c-4.577,16.792-7.764,33.719-4.284,51.169 c2.163,10.867,5.768,21.096,12.622,30.093c7.053,9.258,22.8,8.202,29.194-0.251c6.071-8.025,10.094-17.074,14.284-26.081 c2.299-4.932,4.409-9.947,6.604-14.932c-0.408,5.998-0.387,11.849-0.167,17.68c0.219,5.747,1.139,11.421,4.127,16.499 c3.594,6.102,10.355,7.879,16.635,4.618c6.625-3.438,11.139-9.101,14.649-15.245c15.057-26.425,29.027-53.415,40.594-81.596 c2.466-5.987,4.995-11.964,7.785-18.62c0.428,2.184,0.711,3.521,0.972,4.859c2.57,13.427,7.147,26.133,13.772,38.076 c1.421,2.56,1.264,4.326-0.533,6.781c-6.102,8.307-12.79,16.123-19.383,24.022c-5.538,6.646-11.463,12.999-16.144,20.313 c-4.2,6.583-1.787,13.322,5.204,14.817c2.152,0.46,4.42,0.596,6.625,0.564c12.215-0.146,23.489-3.793,33.991-9.77 c14.137-8.056,22.518-19.864,22.131-36.676c-0.178-7.649-2.247-14.994-5.329-22.006c-0.679-1.557-0.711-2.685,0.303-4.148 c9.791-14.023,18.442-28.724,26.394-43.854c1.411-2.664,2.403-5.622,4.681-8.223c0.303,1.055,0.543,1.714,0.679,2.393 c2.529,12.539,5.935,24.795,12.33,35.986c1.755,3.062,0.878,4.618-1.546,6.666c-8.349,7.095-15.391,15.37-20.919,24.848 c-4.305,7.377-7.252,15.255-7.22,23.897c0.031,9.613,7.387,15.276,16.76,13.019c9.77-2.341,18.829-6.322,26.958-12.267 c17.711-12.967,22.904-26.645,17.356-45.735c-2.173-7.513-2.132-7.387,5.402-9.665c16.478-4.974,33.196-5.183,49.998-2.445 c1.902,0.313,3.783,0.669,5.642,1.076c0.982-5.966,1.755-12.006,2.299-18.119C489.441,274.192,467.978,276.919,446.767,284.975z M98.586,419.401c-4.775,1.693-9.738,2.414-14.817,2.017c-6.322-0.502-10.334-4.963-10.742-11.672 c-0.46-7.732,1.829-14.712,5.214-21.504c6.154-12.33,16.488-20.699,27.032-28.912c10.25-7.993,21.264-14.817,32.402-21.452 c3.375-2.006,3.427-1.985,4.2,2.038c1.003,5.162,1.902,10.334,1.567,15.026C144.321,383.08,123.883,410.446,98.586,419.401z M251.956,277.514c-1.776,11.86-5.653,23.155-9.78,34.314c-5.622,15.235-11.097,30.542-18.171,45.192 c-1.62,3.375-3.323,6.729-5.945,9.477c-2.476,2.602-4.671,2.299-6.384-0.878c-3.344-6.207-2.926-13.113-3.469-18.129 c0.157-25.161,8.6-45.725,22.507-64.209c3.887-5.151,8.85-9.341,15.423-11.024C250.598,271.12,252.656,272.917,251.956,277.514z M349.341,352.005c-4.765,8.234-11.63,14.221-20.052,18.484c-0.899,0.449-2.058,1.243-2.873,0.188 c-0.773-0.993,0.47-1.651,1.034-2.278c8.37-9.143,16.635-18.359,24.085-28.275c0.115-0.157,0.397-0.178,1.034-0.449 C352.496,344.263,351.493,348.296,349.341,352.005z M407.134,351.65c-1.243,0.585-2.685,1.682-3.897,0.742 c-1.337-1.034-0.805-2.863-0.397-4.263c1.902-6.384,4.462-12.497,7.993-18.192c2.967-4.796,6.646-8.986,10.689-12.894 c1.63-1.567,2.361-1.379,2.915,0.878c0.575,2.309,0.627,4.618,0.669,6.969C425.002,337.753,418.471,346.311,407.134,351.65z"/></svg>

<!-- icon666.com - MILLIONS vector ICONS FREE --><svg version="1.1" id="Capa_1" xmlns="http://www.w3.org/2000/svg" xmlns:xlink="http://www.w3.org/1999/xlink" x="0px" y="0px" viewBox="0 0 512 512" style="enable-background:new 0 0 512 512;" xml:space="preserve"><polygon style="fill:#2196F3;" points="32,0 72.8,460.8 256,512 439.136,460.832 480,0 "/><polygon style="fill:#FAFAFA;" points="392.768,150.688 387.616,208.576 372.064,382.112 256,414.208 255.904,414.24 139.904,382.112 131.808,291.36 188.64,291.36 192.864,338.432 255.936,355.456 255.968,355.424 319.136,338.4 327.744,259.968 129.088,260.512 123.456,206.88 332.512,204.416 336.736,147.008 117.856,147.616 114.176,94.208 256,94.208 397.824,94.208 "/></svg>

<!-- icon666.com - MILLIONS vector ICONS FREE --><svg xmlns="http://www.w3.org/2000/svg" xmlns:xlink="http://www.w3.org/1999/xlink" version="1.1" id="Capa_1" x="0px" y="0px" viewBox="0 0 512 512" style="enable-background:new 0 0 512 512;" xml:space="preserve"><g><path style="fill:#2496ED;" d="M506.983,211.064c-1.362-1.075-14.333-10.893-41.71-10.893c-7.238,0-14.405,0.645-21.572,1.863 c-5.303-36.263-35.26-53.965-36.621-54.753l-7.31-4.228l-4.802,6.952c-6.02,9.388-10.463,19.708-13.043,30.53 c-4.873,20.711-1.935,40.133,8.6,56.759c-12.685,7.095-33.11,8.815-37.195,8.958H16c-8.815,0-15.981,7.167-15.981,15.91 c-0.358,29.526,4.587,58.91,14.763,86.644c11.61,30.458,28.881,52.889,51.385,66.649c25.226,15.408,66.148,24.223,112.587,24.223 c20.998,0.072,41.925-1.863,62.493-5.662c28.666-5.232,56.258-15.265,81.556-29.67c20.855-12.111,39.703-27.52,55.685-45.579 c26.731-30.243,42.641-63.926,54.466-93.882c1.577,0,3.153,0,4.73,0c29.24,0,47.228-11.682,57.189-21.5 c6.593-6.235,11.753-13.903,15.05-22.36l2.078-6.163L506.983,211.064z"/><path style="fill:#2496ED;" d="M47.246,236.363h45.221c2.15,0,3.942-1.792,3.942-3.942l0,0v-40.276c0-2.15-1.72-3.942-3.942-3.942 l0,0H47.246c-2.15,0-3.942,1.792-3.942,3.942l0,0v40.276C43.304,234.571,45.096,236.363,47.246,236.363L47.246,236.363"/><path style="fill:#2496ED;" d="M109.524,236.363h45.221c2.15,0,3.942-1.792,3.942-3.942l0,0v-40.276c0-2.15-1.72-3.942-3.942-3.942 l0,0h-45.221c-2.222,0-3.942,1.792-3.942,3.942v40.276C105.582,234.571,107.374,236.363,109.524,236.363"/><path style="fill:#2496ED;" d="M172.805,236.363h45.221c2.15,0,3.942-1.792,3.942-3.942l0,0v-40.276c0-2.15-1.72-3.942-3.942-3.942 l0,0h-45.221c-2.15,0-3.942,1.792-3.942,3.942l0,0v40.276C168.863,234.571,170.583,236.363,172.805,236.363L172.805,236.363"/><path style="fill:#2496ED;" d="M235.298,236.363h45.221c2.15,0,3.942-1.792,3.942-3.942v-40.276c0-2.222-1.792-3.942-3.942-3.942 l0,0h-45.221c-2.15,0-3.942,1.792-3.942,3.942l0,0v40.276C231.356,234.571,233.076,236.363,235.298,236.363L235.298,236.363"/><path style="fill:#2496ED;" d="M109.524,178.456h45.221c2.15,0,3.942-1.792,3.942-3.942v-40.276c0-2.15-1.792-3.942-3.942-3.942 l0,0h-45.221c-2.15,0-3.942,1.792-3.942,3.942v40.276C105.582,176.665,107.374,178.456,109.524,178.456"/><path style="fill:#2496ED;" d="M172.805,178.456h45.221c2.15,0,3.942-1.792,3.942-3.942v-40.276c0-2.15-1.792-3.942-3.942-3.942 l0,0h-45.221c-2.15,0-3.942,1.792-3.942,3.942l0,0v40.276C168.863,176.665,170.583,178.456,172.805,178.456"/><path style="fill:#2496ED;" d="M235.298,178.456h45.221c2.222,0,3.942-1.792,3.942-3.942v-40.276c0-2.15-1.792-3.942-3.942-3.942 h-45.221c-2.15,0-3.942,1.792-3.942,3.942l0,0v40.276C231.356,176.665,233.076,178.456,235.298,178.456"/><path style="fill:#2496ED;" d="M235.298,120.479h45.221c2.15,0,3.942-1.792,3.942-3.942V76.261c0-2.15-1.792-3.942-3.942-3.942 h-45.221c-2.15,0-3.942,1.792-3.942,3.942l0,0v40.276C231.356,118.759,233.076,120.479,235.298,120.479"/><path style="fill:#2496ED;" d="M298.292,236.363h45.221c2.15,0,3.942-1.792,3.942-3.942v-40.276c0-2.222-1.792-3.942-3.942-3.942 l0,0h-45.221c-2.15,0-3.942,1.792-3.942,3.942l0,0v40.276C294.35,234.571,296.142,236.363,298.292,236.363"/></g></svg>

<!-- icon666.com - MILLIONS vector ICONS FREE --><svg viewBox="0 0 152 152" xmlns="http://www.w3.org/2000/svg"><g id="Layer_2" data-name="Layer 2"><g id="_76.git" data-name="76.git"><path d="m76 0a76 76 0 1 0 76 76 76 76 0 0 0 -76-76zm-4 65a30.86 30.86 0 0 1 -3.29.93 10.31 10.31 0 0 1 .67 3.56c0 7.16-4.36 12.64-11.31 14-2.09.44-3.29 1.32-3.29 3.61 0 6.5 16.91 2.09 16.91 14 0 9.72-6.48 12.9-15.19 12.9-7.15 0-15.32-2.43-15.32-11.17 0-5.07 3-8 7.58-9.53v-.17c-4.19-2.57-3.31-9.75-.17-11.16v-.17c-4.23-1.44-6.94-7.33-6.94-11.62 0-11.52 12.23-17 21.24-11.74a24.59 24.59 0 0 0 9.12-2zm13.35 28.81h-9.3c.27-3.07.3-34.44 0-36.95h9.3c-.3 2.48-.27 33.9 0 36.95zm-4.63-43.45a6.19 6.19 0 0 1 0-12.36c3.32 0 5.66 3 5.66 6.22s-2.38 6.14-5.66 6.14zm30.11 42.35a16.13 16.13 0 0 1 -7.62 1.65c-9 0-10-7.15-10-14.53v-14.83h.08v-.17a13.27 13.27 0 0 0 -4 .17v-8.11h4a41.7 41.7 0 0 0 -.25-7h9.5a48.21 48.21 0 0 0 -.25 7h8.54v8.11s-3.23-.17-8.54-.17v15.41c0 2.51.55 5.56 3.65 5.56a9 9 0 0 0 4.9-1.41zm-61.17 9.68c0 3.82 4.35 4.28 7.25 4.28 3.05 0 6.31-.77 6.31-4.46s-4-4.24-6.9-4.24-6.65.64-6.66 4.42zm.89-32.12c0 3.52 1.55 5.73 5.24 5.73s5-2.37 5-5.82c-.03-8.18-10.24-8.28-10.24.09z"/></g></g></svg>

<!-- icon666.com - MILLIONS vector ICONS FREE --><svg id="Capa_1" enable-background="new 0 0 512 512" viewBox="0 0 512 512" xmlns="http://www.w3.org/2000/svg"><g><path d="m0 0h512v512h-512z" fill="#ffdf00"/><path d="m343.934 400.002c10.313 16.839 23.731 29.216 47.462 29.216 19.935 0 32.67-9.964 32.67-23.731 0-16.498-13.084-22.341-35.027-31.939l-12.028-5.161c-34.719-14.791-57.783-33.321-57.783-72.493 0-36.084 27.494-63.553 70.461-63.553 30.59 0 52.582 10.646 68.429 38.522l-37.465 24.056c-8.249-14.791-17.148-20.618-30.964-20.618-14.092 0-23.024 8.94-23.024 20.618 0 14.434 8.94 20.277 29.582 29.217l12.028 5.152c40.879 17.53 63.959 35.401 63.959 75.581 0 43.317-34.028 67.048-79.726 67.048-44.682 0-73.549-21.293-87.674-49.201zm-169.96 4.169c7.558 13.41 14.434 24.747 30.964 24.747 15.807 0 25.779-6.185 25.779-30.232v-163.597h48.112v164.246c0 49.818-29.208 72.493-71.843 72.493-38.522 0-60.83-19.936-72.176-43.947z"/></g></svg>

<!-- icon666.com - MILLIONS vector ICONS FREE --><svg viewBox="-30 0 512 512" xmlns="http://www.w3.org/2000/svg"><path d="m0 0 31.800781 448.101562 194.398438 63.898438 194.398437-63.898438 31.800782-448.101562zm0 0" fill="#ff7816"/><path d="m452.398438 0-31.800782 448.101562-194.398437 63.898438v-512zm0 0" fill="#ff4b00"/><path d="m367.5 136h-222.300781l5.398437 75h211.503906l-12.902343 181.597656-123 41.101563-123-41.101563-4.199219-60.597656h60l1.199219 16.5 66 21.898438 66-21.898438 5.398437-77.5h-203.097656l-13.800781-195h291zm0 0" fill="#ececf1"/><g fill="#e2e2e7"><path d="m362.101562 211-12.902343 181.597656-123 41.101563v-63.300781l66-21.898438 5.398437-77.5h-71.398437v-60zm0 0"/><path d="m371.699219 76-4.199219 60h-141.300781v-60zm0 0"/></g></svg>

<!-- icon666.com - MILLIONS vector ICONS FREE --><svg version="1.1" id="Capa_1" xmlns="http://www.w3.org/2000/svg" xmlns:xlink="http://www.w3.org/1999/xlink" x="0px" y="0px" viewBox="0 0 224.667 224.667" style="enable-background:new 0 0 224.667 224.667;" xml:space="preserve"><g><path d="M185.876,112.333c3.346-3.268,6.446-6.539,9.251-9.791c20.433-23.684,19.158-38.292,14.49-46.376 c-3.311-5.734-11.018-12.569-28.931-12.569c-9.156,0-19.906,1.758-31.583,5.038c-1.157-4.529-2.439-8.847-3.851-12.899 C134.957,6.2,121.669,0,112.334,0S89.71,6.2,79.416,35.736c-1.412,4.053-2.695,8.371-3.852,12.899 c-11.677-3.28-22.428-5.038-31.584-5.038c-17.914,0-25.62,6.835-28.93,12.569c-4.667,8.084-5.942,22.692,14.49,46.376 c2.805,3.251,5.905,6.522,9.251,9.791c-3.346,3.268-6.446,6.539-9.251,9.791C9.108,145.808,10.382,160.416,15.05,168.5 c3.31,5.733,11.017,12.568,28.931,12.569c0.001,0,0.001,0,0.003,0c9.155,0,19.904-1.758,31.581-5.038 c1.157,4.529,2.439,8.847,3.852,12.899c10.294,29.536,23.583,35.736,32.918,35.736s22.623-6.2,32.918-35.736 c1.412-4.052,2.695-8.371,3.851-12.899c11.676,3.279,22.426,5.038,31.582,5.038c0.002,0,0.002,0,0.004,0 c17.909,0,25.617-6.835,28.928-12.569c4.668-8.084,5.942-22.691-14.49-46.376C192.322,118.873,189.221,115.602,185.876,112.333z M180.686,58.598c8.271,0,14.08,1.848,15.94,5.069c2.262,3.917,0.252,13.883-12.856,29.077c-2.719,3.152-5.755,6.33-9.043,9.51 c-5.958-5.019-12.449-9.968-19.37-14.76c-0.69-8.388-1.73-16.481-3.097-24.149C162.944,60.269,172.667,58.598,180.686,58.598z M126.852,137.48c-4.826,2.786-9.681,5.404-14.518,7.84c-4.837-2.436-9.693-5.054-14.519-7.84c-4.94-2.852-9.624-5.743-14.06-8.647 c-0.297-5.293-0.458-10.795-0.458-16.5c0-5.701,0.161-11.2,0.458-16.491c4.528-2.964,9.219-5.861,14.061-8.656 c4.826-2.786,9.681-5.404,14.519-7.84c4.837,2.436,9.693,5.054,14.519,7.84c4.842,2.795,9.533,5.692,14.061,8.656 c0.297,5.291,0.458,10.79,0.458,16.491c0,5.701-0.161,11.2-0.458,16.49C136.385,131.788,131.694,134.685,126.852,137.48z M139.193,147.616c-0.397,3.075-0.841,6.051-1.328,8.928c-2.762-1.032-5.561-2.14-8.388-3.321c1.626-0.9,3.251-1.814,4.875-2.751 C135.981,149.53,137.594,148.578,139.193,147.616z M95.191,153.222c-2.827,1.182-5.626,2.29-8.388,3.322 c-0.487-2.877-0.931-5.854-1.328-8.928c1.599,0.962,3.212,1.915,4.841,2.855C91.939,151.408,93.565,152.322,95.191,153.222z M68.349,117.953c-2.471-1.886-4.834-3.764-7.087-5.629c2.281-1.883,4.646-3.756,7.087-5.615c-0.034,1.868-0.052,3.743-0.052,5.626 C68.297,114.215,68.315,116.087,68.349,117.953z M85.475,77.051c0.397-3.074,0.841-6.051,1.328-8.927 c2.762,1.032,5.561,2.14,8.388,3.321c-1.626,0.9-3.251,1.814-4.875,2.751C88.686,75.137,87.074,76.089,85.475,77.051z M129.477,71.445c2.827-1.181,5.626-2.289,8.388-3.321c0.487,2.876,0.931,5.853,1.328,8.928c-1.599-0.962-3.212-1.915-4.841-2.855 C132.728,73.259,131.103,72.345,129.477,71.445z M156.318,106.708c2.445,1.862,4.814,3.739,7.099,5.625 c-2.285,1.887-4.654,3.763-7.099,5.625c0.034-1.867,0.052-3.742,0.052-5.625C156.371,110.451,156.352,108.576,156.318,106.708z M112.334,15c7.187,0,16.342,13.991,22.432,38.261c-7.289,2.64-14.81,5.78-22.432,9.383c-7.622-3.603-15.143-6.743-22.432-9.383 C95.992,28.991,105.147,15,112.334,15z M28.04,63.667c1.86-3.222,7.67-5.069,15.94-5.069c8.019,0,17.742,1.671,28.426,4.747 c-1.367,7.667-2.407,15.761-3.097,24.149c-6.91,4.785-13.392,9.726-19.342,14.738C31.988,84.818,24.447,69.891,28.04,63.667z M43.981,166.069c-8.271,0-14.081-1.848-15.941-5.069c-2.262-3.917-0.251-13.883,12.857-29.077c2.719-3.151,5.754-6.33,9.042-9.51 c5.958,5.019,12.449,9.968,19.37,14.76c0.69,8.388,1.73,16.482,3.097,24.149C61.723,164.399,52,166.07,43.981,166.069z M112.334,209.667c-7.187,0-16.342-13.991-22.432-38.261c7.289-2.64,14.81-5.78,22.432-9.383 c7.622,3.603,15.143,6.743,22.432,9.383C128.676,195.676,119.521,209.667,112.334,209.667z M196.627,161 c-1.86,3.222-7.669,5.069-15.938,5.069c0,0-0.002,0-0.003,0c-8.02,0-17.742-1.672-28.425-4.747 c1.367-7.667,2.407-15.76,3.097-24.148c6.921-4.793,13.412-9.741,19.369-14.76c3.288,3.179,6.323,6.358,9.042,9.509 C196.879,147.117,198.888,157.083,196.627,161z"/><path d="M112.334,91.659c-11.4,0-20.675,9.274-20.675,20.675s9.275,20.675,20.675,20.675c11.4,0,20.675-9.274,20.675-20.675 S123.734,91.659,112.334,91.659z"/></g></svg>

<!-- icon666.com - MILLIONS vector ICONS FREE --><svg id="Capa_1" enable-background="new 0 0 512 512" viewBox="0 0 512 512" xmlns="http://www.w3.org/2000/svg"><g><path d="m50 0h412c27.614 0 50 22.386 50 50v412c0 27.614-22.386 50-50 50h-412c-27.614 0-50-22.386-50-50v-412c0-27.614 22.386-50 50-50z" fill="#3178c6"/><path d="m50 0h412c27.614 0 50 22.386 50 50v412c0 27.614-22.386 50-50 50h-412c-27.614 0-50-22.386-50-50v-412c0-27.614 22.386-50 50-50z" fill="#3178c6"/><path clip-rule="evenodd" d="m316.939 407.424v50.061c8.138 4.172 17.763 7.3 28.875 9.386s22.823 3.129 35.135 3.129c21.219 0 44.448-3.035 62.602-14.784 18.064-11.691 26.449-31.14 26.449-52.172 0-15.637-4.851-30.684-15.807-42.081-16.429-17.091-39.516-24.022-60.255-34.183-10.389-5.09-24.727-12.992-24.727-26.361 0-3.441.887-6.543 2.661-9.307 7.132-11.113 22.973-13.376 35.057-13.376 13.717 0 28.189 3.071 40.926 8.76 4.434 1.982 8.529 4.276 12.285 6.884v-46.776c-7.616-2.92-15.937-5.084-24.962-6.492s-19.381-2.112-31.066-2.112c-11.895 0-23.163 1.278-33.805 3.833s-20.006 6.544-28.093 11.967c-8.086 5.424-14.476 12.333-19.171 20.729-4.695 8.395-7.043 18.433-7.043 30.114 0 14.914 4.304 27.638 12.912 38.172 8.607 10.533 21.675 19.45 39.204 26.751 11.792 4.822 24.053 9.581 34.665 16.739 7.355 4.96 14.007 11.877 14.007 21.275 0 6.821-3.856 12.604-9.468 16.192-8.303 5.308-18.936 6.492-28.563 6.492-10.851 0-21.597-1.903-32.24-5.71-10.641-3.806-20.501-9.516-29.578-17.13zm-84.159-123.342h64.22v-41.082h-179v41.082h63.906v182.918h50.874z" fill="#fff" fill-rule="evenodd"/></g></svg>

<!-- icon666.com - MILLIONS vector ICONS FREE --><svg id="Capa_1" enable-background="new 0 0 512 512" viewBox="0 0 512 512" xmlns="http://www.w3.org/2000/svg" xmlns:xlink="http://www.w3.org/1999/xlink"><linearGradient id="path1948_00000153663380415884157280000008978240784360615575_" gradientTransform="matrix(.563 0 0 -.568 -514.163 286.842)" gradientUnits="userSpaceOnUse" x1="896.959" x2="1393.622" y1="479.369" y2="52.058"><stop offset="0" stop-color="#5a9fd4"/><stop offset="1" stop-color="#306998"/></linearGradient><linearGradient id="path1950_00000075154291388394646000000000998535923326963881_" gradientTransform="matrix(.563 0 0 -.568 -514.163 286.842)" gradientUnits="userSpaceOnUse" x1="1585.627" x2="1408.278" y1="-206.531" y2="44.386"><stop offset="0" stop-color="#ffd43b"/><stop offset="1" stop-color="#ffe873"/></linearGradient><g><g id="g2303"><path id="path1948" d="m252.985.004c-20.882.097-40.823 1.878-58.369 4.983-51.689 9.132-61.074 28.245-61.074 63.494v46.553h122.147v15.517h-122.147-45.841c-35.499 0-66.584 21.337-76.306 61.928-11.215 46.526-11.712 75.56 0 124.141 8.683 36.161 29.418 61.927 64.917 61.927h41.997v-55.807c0-40.317 34.883-75.879 76.307-75.879h122.005c33.962 0 61.073-27.963 61.073-62.07v-116.31c0-33.102-27.926-57.969-61.073-63.494-20.983-3.493-42.755-5.08-63.636-4.983zm-66.057 37.442c12.617 0 22.92 10.472 22.92 23.347 0 12.83-10.303 23.205-22.92 23.205-12.662 0-22.92-10.375-22.92-23.205 0-12.876 10.258-23.347 22.92-23.347z" fill="url(#path1948_00000153663380415884157280000008978240784360615575_)"/><path id="path1950" d="m392.927 130.551v54.24c0 42.052-35.652 77.445-76.306 77.445h-122.005c-33.419 0-61.074 28.602-61.074 62.07v116.31c0 33.102 28.785 52.573 61.074 62.07 38.665 11.369 75.743 13.424 122.005 0 30.751-8.903 61.073-26.821 61.073-62.07v-46.553h-122.005v-15.518h122.005 61.074c35.499 0 48.728-24.761 61.074-61.927 12.753-38.262 12.21-75.057 0-124.141-8.773-35.34-25.529-61.928-61.074-61.928h-45.841zm-68.618 294.548c12.662 0 22.92 10.375 22.92 23.205 0 12.876-10.258 23.348-22.92 23.348-12.617 0-22.92-10.472-22.92-23.348-.001-12.83 10.302-23.205 22.92-23.205z" fill="url(#path1950_00000075154291388394646000000000998535923326963881_)"/></g></g></svg>