<!-- icon666.com - MILLIONS vector ICONS FREE --><svg clip-rule="evenodd" fill-rule="evenodd" image-rendering="optimizeQuality" shape-rendering="geometricPrecision" text-rendering="geometricPrecision" viewBox="0 0 2833 2833" xmlns="http://www.w3.org/2000/svg"><g id="Layer_x0020_1"><circle cx="1417" cy="1417" fill="#673b8d" r="1417"></circle><circle cx="1417" cy="1417" fill="#ac2614" r="1417"></circle><g id="_554593424"><g><path d="m1975 1808h-1116c-11 0-20-9-20-20v-1205c0-11 9-20 20-20h798c5 0 10 2 14 6l318 319c4 4 6 9 6 14v886c0 11-9 20-20 20zm-1096-40h1076v-858l-306-307h-770z" fill="#fefefe"></path></g><g><path d="m1975 922h-319c-11 0-20-9-20-20v-319c0-11 9-20 20-20 5 0 11 2 15 6l318 319c4 4 6 9 6 14 0 11-9 20-20 20zm-299-40h251l-251-251z" fill="#fefefe"></path></g><g><g><path d="m1797 1605h-808c-11 0-20-9-20-20s9-20 20-20h808c11 0 20 9 20 20s-9 20-20 20z" fill="#fefefe"></path></g><g><path d="m1742 1379h-753c-11 0-20-9-20-20s9-20 20-20h753c11 0 20 9 20 20s-9 20-20 20z" fill="#fefefe"></path></g><g><path d="m1647 1153h-658c-11 0-20-9-20-20s9-20 20-20h658c11 0 20 9 20 20s-9 20-20 20z" fill="#fefefe"></path></g><g><path d="m1417 927h-428c-11 0-20-9-20-20s9-20 20-20h428c11 0 20 9 20 20s-9 20-20 20z" fill="#fefefe"></path></g></g><g><path d="m2145 2270h-1457c-11 0-20-9-20-20v-462c0-11 9-20 20-20h1457c11 0 20 9 20 20v462c0 11-9 20-20 20zm-1437-40h1417v-422h-1417z" fill="#fefefe"></path></g><g><g><path d="m956 2179c-11 0-20-9-20-20v-280c0-11 9-20 20-20s20 9 20 20v280c0 11-9 20-20 20z" fill="#fefefe"></path></g><g><path d="m1083 2073h-127c-11 0-20-9-20-20v-174c0-11 9-20 20-20h127c59 0 108 48 108 107s-48 107-108 107zm-107-40h107c37 0 68-30 68-67s-31-67-68-67h-107z" fill="#fefefe"></path></g></g><g><g><path d="m1311 2179c-11 0-20-9-20-20v-280c0-11 9-20 20-20s20 9 20 20v280c0 11-9 20-20 20z" fill="#fefefe"></path></g><g><path d="m1428 2179h-117c-11 0-20-9-20-20v-280c0-11 9-20 20-20h117c76 0 137 61 137 137v46c0 75-61 137-137 137zm-97-40h97c54 0 97-44 97-97v-46c0-54-43-97-97-97h-97z" fill="#fefefe"></path></g></g><g><g><path d="m1685 2179c-11 0-20-9-20-20v-280c0-11 9-20 20-20h192c11 0 20 9 20 20s-9 20-20 20h-172v260c0 11-9 20-20 20z" fill="#fefefe"></path></g><g><path d="m1877 2039h-192c-11 0-20-9-20-20s9-20 20-20h192c11 0 20 9 20 20s-9 20-20 20z" fill="#fefefe"></path></g></g></g></g></svg>